<svg height="464pt" viewBox="0 -104 464.00017 464" width="464pt" xmlns="http://www.w3.org/2000/svg"><path d="m426.558594 37.441406c-22.632813-22.65625-52.960938-35.964844-84.957032-37.28125-1.839843-.0781248-3.679687-.160156-5.601562-.160156h-208c-70.691406 0-128 57.308594-128 128s57.308594 128 128 128h208c51.769531-.03125 98.429688-31.222656 118.246094-79.046875s8.890625-102.878906-27.6875-139.511719zm-370.558594 114.558594c-13.253906 0-24-10.746094-24-24s10.746094-24 24-24 24 10.746094 24 24-10.746094 24-24 24zm0 0" fill="#57565c"/><path d="m464 128c0 70.691406-57.308594 128-128 128h-203.28125c70.882812-38.320312 157.359375-112.640625 208.882812-255.839844 68.492188 2.867188 122.511719 59.285156 122.398438 127.839844zm0 0" fill="#3e3d42"/><path d="m336 48h-208c-22.269531.015625-43.527344 9.320312-58.640625 25.679688 25.03125 6.121093 42.640625 28.550781 42.640625 54.320312s-17.609375 48.199219-42.640625 54.320312c15.113281 16.359376 36.371094 25.667969 58.640625 25.679688h208c44.183594 0 80-35.816406 80-80s-35.816406-80-80-80zm0 0" fill="#e6e7e8"/><g fill="#898890"><path d="m136 72h32v16h-32zm0 0"/><path d="m184 72h144v16h-144zm0 0"/><path d="m136 120h96v16h-96zm0 0"/><path d="m248 120h80v16h-80zm0 0"/><path d="m136 168h64v16h-64zm0 0"/><path d="m216 168h112v16h-112zm0 0"/></g></svg>